<svg width="258" height="54" viewBox="0 0 258 54" fill="none" xmlns="http://www.w3.org/2000/svg">
<path d="M27.008 25.0563H24.248V29.7603C24.248 31.5363 24.68 31.8723 27.272 31.9443V32.6883H20V31.9443C22.016 31.8963 22.256 31.6563 22.256 29.9043V19.1523C22.256 17.4003 22.016 17.1603 20 17.1123V16.3683H27.608C31.208 16.3683 33.032 17.7843 33.032 20.5923C33.032 23.3763 30.728 25.0563 27.008 25.0563ZM27.248 17.2323H24.248V24.1923H26.648C29.264 24.1923 30.824 22.8723 30.824 20.5923C30.824 18.2883 29.744 17.2323 27.248 17.2323Z" fill="black"/>
<path d="M41.7753 21.0243C42.6873 21.0243 43.3833 21.6483 43.3833 22.5123C43.3833 23.3763 42.7593 23.9763 42.0393 23.9763C41.1273 23.9763 41.1273 23.0163 40.4313 22.7283C39.8073 23.3043 39.0633 24.4323 38.4633 26.3523V30.3123C38.4633 31.7043 38.7273 31.9203 40.6233 32.0403V32.6883H34.9833V32.0403C36.4473 31.9203 36.7113 31.6323 36.7113 30.3123V24.0483C36.7113 22.6803 36.4233 22.4403 34.9833 22.4403V21.8883L37.8633 21.1683H38.4633V24.8403C39.0633 23.0403 40.3353 21.0243 41.7753 21.0243Z" fill="black"/>
<path d="M50.8143 33.0243C47.5503 33.0243 45.3903 30.6243 45.3903 27.0483C45.3903 23.4483 47.5743 21.0243 50.8383 21.0243C54.1023 21.0243 56.2623 23.4243 56.2623 27.0003C56.2623 30.6003 54.0783 33.0243 50.8143 33.0243ZM51.0063 32.1123C52.4463 32.1123 54.1743 31.0083 54.1743 27.4323C54.1743 24.6723 53.0223 21.9363 50.6463 21.9363C49.2063 21.9363 47.4783 23.0403 47.4783 26.6163C47.4783 29.3763 48.6303 32.1123 51.0063 32.1123Z" fill="black"/>
<path d="M62.8409 33.0243C61.6409 33.0243 60.3449 32.7363 59.3609 32.2083L59.2409 28.9683H60.1769C60.4409 31.2003 61.4729 32.1123 63.0329 32.1123C64.4009 32.1123 65.2409 31.4643 65.2409 30.4083C65.2409 29.4723 64.7609 28.8963 63.5369 28.3443L61.7369 27.5283C60.1529 26.8323 59.2889 25.7523 59.2889 24.2643C59.2889 22.2243 60.9449 21.0243 63.3689 21.0243C64.5929 21.0243 65.8409 21.3123 66.8249 21.8403L66.9449 24.6723H65.9849C65.7449 22.8483 64.8089 21.9363 63.1529 21.9363C61.8569 21.9363 60.9449 22.5843 60.9449 23.6643C60.9449 24.6003 61.4489 25.1763 62.6729 25.7283L64.4729 26.5443C66.0809 27.2643 66.8969 28.2003 66.8969 29.7363C66.8969 31.7763 65.3129 33.0243 62.8409 33.0243Z" fill="black"/>
<path d="M76.5883 21.0243C79.1803 21.0243 80.9563 23.2083 80.9563 26.7123C80.9563 30.6723 79.0602 33.0243 75.7962 33.0243C74.4043 33.0243 73.5163 32.6163 72.8683 32.1123V35.0883C72.8683 36.6003 73.2043 36.8883 75.4363 36.9843V37.6323H69.3883V36.9843C70.8763 36.8883 71.1163 36.6483 71.1163 35.0883V24.0483C71.1163 22.6803 70.8283 22.4403 69.3883 22.4403V21.8883L72.2682 21.1683H72.8683V23.3283C73.7323 21.8403 74.9563 21.0243 76.5883 21.0243ZM75.7483 32.1123C77.8123 32.1123 79.0123 30.4083 79.0123 27.3123C79.0123 24.4083 77.8363 22.6803 75.9403 22.6803C74.8123 22.6803 73.8523 23.1123 72.8683 24.2643V28.5123C72.8683 30.9363 74.0203 32.1123 75.7483 32.1123Z" fill="black"/>
<path d="M93.1229 25.7763H85.3949C85.3709 26.0163 85.3709 26.2563 85.3709 26.5203C85.3709 29.3763 86.8829 31.0323 89.1149 31.0323C90.6989 31.0323 91.8269 30.2163 92.3309 28.9683L93.0029 29.1603C92.4749 31.6323 91.2509 33.0243 88.7789 33.0243C85.6589 33.0243 83.6909 30.7683 83.6909 27.1923C83.6909 23.4963 85.6829 21.0243 88.8029 21.0243C91.6109 21.0243 93.1469 22.8723 93.1229 25.7763ZM88.6109 21.9123C87.1709 21.9123 85.9709 22.9203 85.5389 24.8643H91.1549C91.1549 23.2083 90.4589 21.9123 88.6109 21.9123Z" fill="black"/>
<path d="M102.328 21.0243C103.24 21.0243 103.936 21.6483 103.936 22.5123C103.936 23.3763 103.312 23.9763 102.592 23.9763C101.68 23.9763 101.68 23.0163 100.984 22.7283C100.36 23.3043 99.6164 24.4323 99.0164 26.3523V30.3123C99.0164 31.7043 99.2804 31.9203 101.176 32.0403V32.6883H95.5364V32.0403C97.0004 31.9203 97.2644 31.6323 97.2644 30.3123V24.0483C97.2644 22.6803 96.9764 22.4403 95.5364 22.4403V21.8883L98.4164 21.1683H99.0164V24.8403C99.6164 23.0403 100.888 21.0243 102.328 21.0243Z" fill="black"/>
<path d="M108.53 19.0323C107.69 19.0323 107.09 18.4323 107.09 17.5923C107.09 16.7523 107.69 16.1523 108.53 16.1523C109.346 16.1523 109.946 16.7523 109.946 17.5923C109.946 18.4323 109.346 19.0323 108.53 19.0323ZM111.266 32.6883H105.866V32.0403C107.45 31.9203 107.69 31.6563 107.69 30.3123V24.0483C107.69 22.6803 107.426 22.4403 105.866 22.4403V21.8883L108.842 21.1683H109.442V30.3123C109.442 31.6563 109.682 31.9203 111.266 32.0403V32.6883Z" fill="black"/>
<path d="M120.824 30.4083L121.28 30.8403C120.344 32.2563 119.504 32.9283 118.16 32.9283C116.384 32.9283 115.352 31.7763 115.352 29.8083V22.8963H113.168V22.0563C114.92 21.8403 115.928 20.9763 116.216 19.2963H117.104V21.3123H120.536V22.8963H117.104V29.4243C117.104 30.7203 117.728 31.4163 118.736 31.4163C119.528 31.4163 120.176 31.1043 120.824 30.4083Z" fill="black"/>
<path d="M130.3 21.9603V21.3123H134.284V21.9603C133.612 22.0323 133.348 22.4163 132.676 24.0243L128.884 33.0723C127.444 36.5283 126.172 37.8483 124.372 37.8483C123.076 37.8483 122.164 37.1523 122.164 36.0963C122.164 35.3043 122.644 34.8483 123.412 34.8483C124.516 34.8483 124.468 35.9763 125.428 36.6723C126.412 36.1443 127.132 34.6323 128.164 32.2563L128.188 32.2083L124.708 24.0723C124.012 22.4403 123.652 21.9843 122.956 21.9603V21.3123H127.948V21.9603C126.892 22.0083 126.412 22.2963 126.412 22.9443C126.412 23.2563 126.484 23.4963 126.676 23.9763L129.124 29.9763L131.668 23.9043C131.836 23.4963 131.908 23.1843 131.908 22.9443C131.908 22.3443 131.38 21.9843 130.3 21.9603Z" fill="black"/>
<path d="M149.373 25.0563H146.613V29.7603C146.613 31.5363 147.045 31.8723 149.637 31.9443V32.6883H142.365V31.9443C144.381 31.8963 144.621 31.6563 144.621 29.9043V19.1523C144.621 17.4003 144.381 17.1603 142.365 17.1123V16.3683H149.973C153.573 16.3683 155.397 17.7843 155.397 20.5923C155.397 23.3763 153.093 25.0563 149.373 25.0563ZM149.613 17.2323H146.613V24.1923H149.013C151.629 24.1923 153.189 22.8723 153.189 20.5923C153.189 18.2883 152.109 17.2323 149.613 17.2323Z" fill="black"/>
<path d="M167.768 30.0483L168.416 30.2403C168.152 31.8723 167.72 32.9283 166.184 32.9283C165.08 32.9283 164.24 32.2563 164.144 30.7203C163.424 32.2323 162.152 33.0243 160.808 33.0243C159.128 33.0243 157.976 32.0403 157.976 30.4563C157.976 28.7763 159.2 27.9123 161.312 27.2163L164.144 26.3043V25.1523C164.144 23.1123 163.232 22.2243 161.528 22.2243C160.64 22.2243 159.776 22.5363 159.224 22.8963C159.368 23.9523 160.328 24.1203 160.328 25.0803C160.328 25.8003 159.752 26.3523 159.008 26.3523C158.144 26.3523 157.592 25.6803 157.592 24.7203C157.592 22.7283 160.016 21.0243 162.224 21.0243C164.36 21.0243 165.896 22.1283 165.896 24.8643V30.2883C165.896 31.2483 166.16 31.5123 166.664 31.5123C167.24 31.5123 167.528 31.0803 167.768 30.0483ZM161.504 31.5603C162.416 31.5603 163.4 30.9843 164.144 29.5923V27.2403L162.104 27.9603C160.688 28.4643 159.872 28.9443 159.872 30.0483C159.872 31.0083 160.472 31.5603 161.504 31.5603Z" fill="black"/>
<path d="M174.15 33.0243C172.95 33.0243 171.654 32.7363 170.67 32.2083L170.55 28.9683H171.486C171.75 31.2003 172.782 32.1123 174.342 32.1123C175.71 32.1123 176.55 31.4643 176.55 30.4083C176.55 29.4723 176.07 28.8963 174.846 28.3443L173.046 27.5283C171.462 26.8323 170.598 25.7523 170.598 24.2643C170.598 22.2243 172.254 21.0243 174.678 21.0243C175.902 21.0243 177.15 21.3123 178.134 21.8403L178.254 24.6723H177.294C177.054 22.8483 176.118 21.9363 174.462 21.9363C173.166 21.9363 172.254 22.5843 172.254 23.6643C172.254 24.6003 172.758 25.1763 173.982 25.7283L175.782 26.5443C177.39 27.2643 178.206 28.2003 178.206 29.7363C178.206 31.7763 176.622 33.0243 174.15 33.0243Z" fill="black"/>
<path d="M185.066 33.0243C183.866 33.0243 182.57 32.7363 181.586 32.2083L181.466 28.9683H182.402C182.666 31.2003 183.698 32.1123 185.258 32.1123C186.626 32.1123 187.466 31.4643 187.466 30.4083C187.466 29.4723 186.986 28.8963 185.762 28.3443L183.962 27.5283C182.378 26.8323 181.514 25.7523 181.514 24.2643C181.514 22.2243 183.17 21.0243 185.594 21.0243C186.818 21.0243 188.066 21.3123 189.05 21.8403L189.17 24.6723H188.21C187.97 22.8483 187.034 21.9363 185.378 21.9363C184.082 21.9363 183.17 22.5843 183.17 23.6643C183.17 24.6003 183.674 25.1763 184.898 25.7283L186.698 26.5443C188.306 27.2643 189.122 28.2003 189.122 29.7363C189.122 31.7763 187.538 33.0243 185.066 33.0243Z" fill="black"/>
<path d="M198.813 21.0243C201.405 21.0243 203.181 23.2083 203.181 26.7123C203.181 30.6723 201.285 33.0243 198.021 33.0243C196.629 33.0243 195.741 32.6163 195.093 32.1123V35.0883C195.093 36.6003 195.429 36.8883 197.661 36.9843V37.6323H191.613V36.9843C193.101 36.8883 193.341 36.6483 193.341 35.0883V24.0483C193.341 22.6803 193.053 22.4403 191.613 22.4403V21.8883L194.493 21.1683H195.093V23.3283C195.957 21.8403 197.181 21.0243 198.813 21.0243ZM197.973 32.1123C200.037 32.1123 201.237 30.4083 201.237 27.3123C201.237 24.4083 200.061 22.6803 198.165 22.6803C197.037 22.6803 196.077 23.1123 195.093 24.2643V28.5123C195.093 30.9363 196.245 32.1123 197.973 32.1123Z" fill="black"/>
<path d="M211.34 33.0243C208.076 33.0243 205.916 30.6243 205.916 27.0483C205.916 23.4483 208.1 21.0243 211.364 21.0243C214.628 21.0243 216.788 23.4243 216.788 27.0003C216.788 30.6003 214.604 33.0243 211.34 33.0243ZM211.532 32.1123C212.972 32.1123 214.7 31.0083 214.7 27.4323C214.7 24.6723 213.548 21.9363 211.172 21.9363C209.732 21.9363 208.004 23.0403 208.004 26.6163C208.004 29.3763 209.156 32.1123 211.532 32.1123Z" fill="black"/>
<path d="M226.006 21.0243C226.918 21.0243 227.614 21.6483 227.614 22.5123C227.614 23.3763 226.99 23.9763 226.27 23.9763C225.358 23.9763 225.358 23.0163 224.662 22.7283C224.038 23.3043 223.294 24.4323 222.694 26.3523V30.3123C222.694 31.7043 222.958 31.9203 224.854 32.0403V32.6883H219.214V32.0403C220.678 31.9203 220.942 31.6323 220.942 30.3123V24.0483C220.942 22.6803 220.654 22.4403 219.214 22.4403V21.8883L222.094 21.1683H222.694V24.8403C223.294 23.0403 224.566 21.0243 226.006 21.0243Z" fill="black"/>
<path d="M237.102 30.4083L237.558 30.8403C236.622 32.2563 235.782 32.9283 234.438 32.9283C232.662 32.9283 231.63 31.7763 231.63 29.8083V22.8963H229.446V22.0563C231.198 21.8403 232.206 20.9763 232.494 19.2963H233.382V21.3123H236.814V22.8963H233.382V29.4243C233.382 30.7203 234.006 31.4163 235.014 31.4163C235.806 31.4163 236.454 31.1043 237.102 30.4083Z" fill="black"/>
</svg>
