<svg width="213" height="22" viewBox="0 0 213 22" fill="none" xmlns="http://www.w3.org/2000/svg">
<path d="M7.008 9.05634H4.248V13.7603C4.248 15.5363 4.68 15.8723 7.272 15.9443V16.6883H0V15.9443C2.016 15.8963 2.256 15.6563 2.256 13.9043V3.15234C2.256 1.40034 2.016 1.16034 0 1.11234V0.368344H7.608C11.208 0.368344 13.032 1.78434 13.032 4.59234C13.032 7.37634 10.728 9.05634 7.008 9.05634ZM7.248 1.23234H4.248V8.19234H6.648C9.264 8.19234 10.824 6.87234 10.824 4.59234C10.824 2.28834 9.744 1.23234 7.248 1.23234Z" fill="black"/>
<path d="M21.7753 5.02434C22.6873 5.02434 23.3833 5.64834 23.3833 6.51234C23.3833 7.37634 22.7593 7.97634 22.0393 7.97634C21.1273 7.97634 21.1273 7.01634 20.4313 6.72834C19.8073 7.30434 19.0633 8.43234 18.4633 10.3523V14.3123C18.4633 15.7043 18.7273 15.9203 20.6233 16.0403V16.6883H14.9833V16.0403C16.4473 15.9203 16.7113 15.6323 16.7113 14.3123V8.04834C16.7113 6.68034 16.4233 6.44034 14.9833 6.44034V5.88834L17.8633 5.16834H18.4633V8.84034C19.0633 7.04034 20.3353 5.02434 21.7753 5.02434Z" fill="black"/>
<path d="M30.8143 17.0243C27.5503 17.0243 25.3903 14.6243 25.3903 11.0483C25.3903 7.44834 27.5743 5.02434 30.8383 5.02434C34.1023 5.02434 36.2623 7.42434 36.2623 11.0003C36.2623 14.6003 34.0783 17.0243 30.8143 17.0243ZM31.0063 16.1123C32.4463 16.1123 34.1743 15.0083 34.1743 11.4323C34.1743 8.67234 33.0223 5.93634 30.6463 5.93634C29.2063 5.93634 27.4783 7.04034 27.4783 10.6163C27.4783 13.3763 28.6303 16.1123 31.0063 16.1123Z" fill="black"/>
<path d="M42.8409 17.0243C41.6409 17.0243 40.3449 16.7363 39.3609 16.2083L39.2409 12.9683H40.1769C40.4409 15.2003 41.4729 16.1123 43.0329 16.1123C44.4009 16.1123 45.2409 15.4643 45.2409 14.4083C45.2409 13.4723 44.7609 12.8963 43.5369 12.3443L41.7369 11.5283C40.1529 10.8323 39.2889 9.75234 39.2889 8.26434C39.2889 6.22434 40.9449 5.02434 43.3689 5.02434C44.5929 5.02434 45.8409 5.31234 46.8249 5.84034L46.9449 8.67234H45.9849C45.7449 6.84834 44.8089 5.93634 43.1529 5.93634C41.8569 5.93634 40.9449 6.58434 40.9449 7.66434C40.9449 8.60034 41.4489 9.17634 42.6729 9.72834L44.4729 10.5443C46.0809 11.2643 46.8969 12.2003 46.8969 13.7363C46.8969 15.7763 45.3129 17.0243 42.8409 17.0243Z" fill="black"/>
<path d="M56.5883 5.02434C59.1803 5.02434 60.9563 7.20834 60.9563 10.7123C60.9563 14.6723 59.0602 17.0243 55.7962 17.0243C54.4043 17.0243 53.5163 16.6163 52.8683 16.1123V19.0883C52.8683 20.6003 53.2043 20.8883 55.4363 20.9843V21.6323H49.3883V20.9843C50.8763 20.8883 51.1163 20.6483 51.1163 19.0883V8.04834C51.1163 6.68034 50.8283 6.44034 49.3883 6.44034V5.88834L52.2682 5.16834H52.8683V7.32834C53.7323 5.84034 54.9563 5.02434 56.5883 5.02434ZM55.7483 16.1123C57.8123 16.1123 59.0123 14.4083 59.0123 11.3123C59.0123 8.40834 57.8363 6.68034 55.9403 6.68034C54.8123 6.68034 53.8523 7.11234 52.8683 8.26434V12.5123C52.8683 14.9363 54.0203 16.1123 55.7483 16.1123Z" fill="black"/>
<path d="M73.1229 9.77634H65.3949C65.3709 10.0163 65.3709 10.2563 65.3709 10.5203C65.3709 13.3763 66.8829 15.0323 69.1149 15.0323C70.6989 15.0323 71.8269 14.2163 72.3309 12.9683L73.0029 13.1603C72.4749 15.6323 71.2509 17.0243 68.7789 17.0243C65.6589 17.0243 63.6909 14.7683 63.6909 11.1923C63.6909 7.49634 65.6829 5.02434 68.8029 5.02434C71.6109 5.02434 73.1469 6.87234 73.1229 9.77634ZM68.6109 5.91234C67.1709 5.91234 65.9709 6.92034 65.5389 8.86434H71.1549C71.1549 7.20834 70.4589 5.91234 68.6109 5.91234Z" fill="black"/>
<path d="M82.3284 5.02434C83.2404 5.02434 83.9364 5.64834 83.9364 6.51234C83.9364 7.37634 83.3124 7.97634 82.5924 7.97634C81.6804 7.97634 81.6804 7.01634 80.9844 6.72834C80.3604 7.30434 79.6164 8.43234 79.0164 10.3523V14.3123C79.0164 15.7043 79.2804 15.9203 81.1764 16.0403V16.6883H75.5364V16.0403C77.0004 15.9203 77.2644 15.6323 77.2644 14.3123V8.04834C77.2644 6.68034 76.9764 6.44034 75.5364 6.44034V5.88834L78.4164 5.16834H79.0164V8.84034C79.6164 7.04034 80.8884 5.02434 82.3284 5.02434Z" fill="black"/>
<path d="M88.5298 3.03234C87.6898 3.03234 87.0898 2.43234 87.0898 1.59234C87.0898 0.752343 87.6898 0.152344 88.5298 0.152344C89.3458 0.152344 89.9458 0.752343 89.9458 1.59234C89.9458 2.43234 89.3458 3.03234 88.5298 3.03234ZM91.2658 16.6883H85.8658V16.0403C87.4498 15.9203 87.6898 15.6563 87.6898 14.3123V8.04834C87.6898 6.68034 87.4258 6.44034 85.8658 6.44034V5.88834L88.8418 5.16834H89.4418V14.3123C89.4418 15.6563 89.6818 15.9203 91.2658 16.0403V16.6883Z" fill="black"/>
<path d="M100.824 14.4083L101.28 14.8403C100.344 16.2563 99.5038 16.9283 98.1598 16.9283C96.3838 16.9283 95.3518 15.7763 95.3518 13.8083V6.89634H93.1678V6.05634C94.9198 5.84034 95.9278 4.97634 96.2158 3.29634H97.1038V5.31234H100.536V6.89634H97.1038V13.4243C97.1038 14.7203 97.7278 15.4163 98.7358 15.4163C99.5278 15.4163 100.176 15.1043 100.824 14.4083Z" fill="black"/>
<path d="M110.3 5.96034V5.31234H114.284V5.96034C113.612 6.03234 113.348 6.41634 112.676 8.02434L108.884 17.0723C107.444 20.5283 106.172 21.8483 104.372 21.8483C103.076 21.8483 102.164 21.1523 102.164 20.0963C102.164 19.3043 102.644 18.8483 103.412 18.8483C104.516 18.8483 104.468 19.9763 105.428 20.6723C106.412 20.1443 107.132 18.6323 108.164 16.2563L108.188 16.2083L104.708 8.07234C104.012 6.44034 103.652 5.98434 102.956 5.96034V5.31234H107.948V5.96034C106.892 6.00834 106.412 6.29634 106.412 6.94434C106.412 7.25634 106.484 7.49634 106.676 7.97634L109.124 13.9763L111.668 7.90434C111.836 7.49634 111.908 7.18434 111.908 6.94434C111.908 6.34434 111.38 5.98434 110.3 5.96034Z" fill="black"/>
<path d="M129.973 0.152344L135.397 13.1363C136.285 15.2723 136.741 15.8483 137.725 15.9443V16.6883H131.773V15.9443C133.141 15.8963 133.765 15.5843 133.765 14.8163C133.765 14.4323 133.621 13.9283 133.357 13.3043L132.517 11.2643H125.821L125.029 13.3043C124.789 13.9523 124.645 14.4323 124.645 14.8163C124.645 15.6083 125.245 15.8963 126.637 15.9443V16.6883H121.645V15.9443C122.629 15.8483 123.013 15.3203 123.829 13.2803L128.485 1.61634L127.885 0.152344H129.973ZM129.061 2.98434L126.229 10.2563H132.085L129.061 2.98434Z" fill="black"/>
<path d="M144.693 17.0243C141.597 17.0243 139.629 14.7923 139.629 11.2643C139.629 7.49634 141.813 5.02434 145.077 5.02434C147.285 5.02434 148.821 6.27234 148.821 8.00034C148.821 9.03234 148.269 9.70434 147.405 9.70434C146.661 9.70434 146.085 9.22434 146.085 8.40834C146.085 7.56834 146.733 7.25634 146.997 6.51234C146.445 6.12834 145.869 5.96034 145.149 5.96034C142.893 5.96034 141.309 7.71234 141.309 10.4723C141.309 13.3763 142.821 15.0323 145.053 15.0323C146.613 15.0323 147.765 14.2163 148.269 12.9683L148.941 13.1603C148.413 15.6323 147.165 17.0243 144.693 17.0243Z" fill="black"/>
<path d="M156.734 17.0243C153.638 17.0243 151.67 14.7923 151.67 11.2643C151.67 7.49634 153.854 5.02434 157.118 5.02434C159.326 5.02434 160.862 6.27234 160.862 8.00034C160.862 9.03234 160.31 9.70434 159.446 9.70434C158.702 9.70434 158.126 9.22434 158.126 8.40834C158.126 7.56834 158.774 7.25634 159.038 6.51234C158.486 6.12834 157.91 5.96034 157.19 5.96034C154.934 5.96034 153.35 7.71234 153.35 10.4723C153.35 13.3763 154.862 15.0323 157.094 15.0323C158.654 15.0323 159.806 14.2163 160.31 12.9683L160.982 13.1603C160.454 15.6323 159.206 17.0243 156.734 17.0243Z" fill="black"/>
<path d="M169.134 17.0243C165.87 17.0243 163.71 14.6243 163.71 11.0483C163.71 7.44834 165.894 5.02434 169.158 5.02434C172.422 5.02434 174.582 7.42434 174.582 11.0003C174.582 14.6003 172.398 17.0243 169.134 17.0243ZM169.326 16.1123C170.766 16.1123 172.494 15.0083 172.494 11.4323C172.494 8.67234 171.342 5.93634 168.966 5.93634C167.526 5.93634 165.798 7.04034 165.798 10.6163C165.798 13.3763 166.95 16.1123 169.326 16.1123Z" fill="black"/>
<path d="M186.897 5.31234V14.0243C186.897 15.5123 187.281 15.7763 188.745 15.7763V16.4003L185.481 16.8323L185.145 16.5683V14.7203C184.257 16.3043 183.201 17.0243 181.617 17.0243C179.625 17.0243 178.233 15.6563 178.233 13.0403V7.44834C178.233 6.39234 177.873 6.08034 176.889 5.91234V5.31234H179.985V12.5843C179.985 14.6483 180.873 15.4163 182.217 15.4163C183.321 15.4163 184.209 14.9123 185.145 13.7843V7.54434C185.145 6.24834 184.809 6.08034 183.441 5.93634V5.31234H186.897Z" fill="black"/>
<path d="M201.251 9.00834V14.3123C201.251 15.6563 201.467 15.9203 202.931 16.0403V16.6883H197.795V16.0403C199.283 15.9203 199.499 15.7043 199.499 14.3123V9.41634C199.499 7.59234 198.659 6.63234 197.147 6.63234C196.019 6.63234 195.083 7.13634 194.147 8.28834V14.3123C194.147 15.6563 194.387 15.9203 195.923 16.0403V16.6883H190.619V16.0403C192.155 15.9203 192.395 15.6563 192.395 14.3123V8.04834C192.395 6.68034 192.107 6.44034 190.619 6.44034V5.88834L193.547 5.16834H194.147V7.32834C195.011 5.84034 196.211 5.02434 197.771 5.02434C199.955 5.02434 201.251 6.44034 201.251 9.00834Z" fill="black"/>
<path d="M212.304 14.4083L212.76 14.8403C211.824 16.2563 210.984 16.9283 209.64 16.9283C207.864 16.9283 206.832 15.7763 206.832 13.8083V6.89634H204.648V6.05634C206.4 5.84034 207.408 4.97634 207.696 3.29634H208.584V5.31234H212.016V6.89634H208.584V13.4243C208.584 14.7203 209.208 15.4163 210.216 15.4163C211.008 15.4163 211.656 15.1043 212.304 14.4083Z" fill="black"/>
</svg>
