<svg width="512" height="512" viewBox="0 0 512 512" fill="none" xmlns="http://www.w3.org/2000/svg">
<rect width="512" height="512" rx="256" fill="#FCF6F1"/>
<path d="M185.654 260.334H158.747V306.452C158.747 323.864 162.959 327.158 188.228 327.864V335.158H117.333V327.864C136.987 327.393 139.327 325.04 139.327 307.864V202.452C139.327 185.275 136.987 182.923 117.333 182.452V175.158H191.504C226.6 175.158 244.382 189.04 244.382 216.57C244.382 243.864 221.921 260.334 185.654 260.334ZM187.994 183.628H158.747V251.864H182.145C207.648 251.864 222.857 238.923 222.857 216.57C222.857 193.981 212.328 183.628 187.994 183.628Z" fill="#476520"/>
<path d="M335.938 260.334H309.031V306.452C309.031 323.864 313.243 327.158 338.512 327.864V335.158H267.617V327.864C287.271 327.393 289.611 325.04 289.611 307.864V202.452C289.611 185.275 287.271 182.923 267.617 182.452V175.158H341.788C376.884 175.158 394.667 189.04 394.667 216.57C394.667 243.864 372.205 260.334 335.938 260.334ZM338.278 183.628H309.031V251.864H332.429C357.932 251.864 373.141 238.923 373.141 216.57C373.141 193.981 362.612 183.628 338.278 183.628Z" fill="#476520"/>
</svg>
