<svg width="192" height="192" viewBox="0 0 192 192" fill="none" xmlns="http://www.w3.org/2000/svg">
<rect width="192" height="192" rx="96" fill="#FCF6F1"/>
<path d="M69.6204 97.6254H59.5302V114.919C59.5302 121.449 61.1095 122.684 70.5856 122.949V125.684H44V122.949C51.3703 122.772 52.2477 121.89 52.2477 115.449V75.9195C52.2477 69.4783 51.3703 68.596 44 68.4195V65.6842H71.8139C84.9751 65.6842 91.6434 70.8901 91.6434 81.2136C91.6434 91.4489 83.2203 97.6254 69.6204 97.6254ZM70.4978 68.8607H59.5302V94.4489H68.3043C77.8681 94.4489 83.5713 89.596 83.5713 81.2136C83.5713 72.743 79.6229 68.8607 70.4978 68.8607Z" fill="#476520"/>
<path d="M125.977 97.6254H115.887V114.919C115.887 121.449 117.466 122.684 126.942 122.949V125.684H100.357V122.949C107.727 122.772 108.604 121.89 108.604 115.449V75.9195C108.604 69.4783 107.727 68.596 100.357 68.4195V65.6842H128.17C141.332 65.6842 148 70.8901 148 81.2136C148 91.4489 139.577 97.6254 125.977 97.6254ZM126.854 68.8607H115.887V94.4489H124.661C134.225 94.4489 139.928 89.596 139.928 81.2136C139.928 72.743 135.979 68.8607 126.854 68.8607Z" fill="#476520"/>
</svg>
