<svg width="180" height="180" viewBox="0 0 180 180" fill="none" xmlns="http://www.w3.org/2000/svg">
<rect width="180" height="180" rx="90" fill="#FCF6F1"/>
<path d="M65.5191 91.9448H56.0595V108.158C56.0595 114.279 57.5402 115.437 66.424 115.686V118.25H41.5V115.686C48.4096 115.52 49.2322 114.693 49.2322 108.654V71.5956C49.2322 65.557 48.4096 64.7298 41.5 64.5643V62H67.5756C79.9142 62 86.1657 66.8805 86.1657 76.5588C86.1657 86.1544 78.269 91.9448 65.5191 91.9448ZM66.3417 64.9779H56.0595V88.9669H64.2853C73.2513 88.9669 78.5981 84.4173 78.5981 76.5588C78.5981 68.6176 74.8965 64.9779 66.3417 64.9779Z" fill="#476520"/>
<path d="M118.353 91.9448H108.894V108.158C108.894 114.279 110.374 115.437 119.258 115.686V118.25H94.3343V115.686C101.244 115.52 102.066 114.693 102.066 108.654V71.5956C102.066 65.557 101.244 64.7298 94.3343 64.5643V62H120.41C132.748 62 139 66.8805 139 76.5588C139 86.1544 131.103 91.9448 118.353 91.9448ZM119.176 64.9779H108.894V88.9669H117.12C126.086 88.9669 131.432 84.4173 131.432 76.5588C131.432 68.6176 127.731 64.9779 119.176 64.9779Z" fill="#476520"/>
</svg>
