<svg width="16" height="16" viewBox="0 0 16 16" fill="none" xmlns="http://www.w3.org/2000/svg">
<rect width="16" height="16" rx="8" fill="#FCF6F1"/>
<path d="M5.80178 8.16176H4.96093V9.60294C4.96093 10.1471 5.09254 10.25 5.88221 10.2721V10.5H3.66675V10.2721C4.28094 10.2574 4.35405 10.1838 4.35405 9.64706V6.35294C4.35405 5.81618 4.28094 5.74265 3.66675 5.72794V5.5H5.98458C7.08134 5.5 7.63704 5.93382 7.63704 6.79412C7.63704 7.64706 6.93511 8.16176 5.80178 8.16176ZM5.8749 5.76471H4.96093V7.89706H5.69211C6.48909 7.89706 6.96435 7.49265 6.96435 6.79412C6.96435 6.08824 6.63532 5.76471 5.8749 5.76471Z" fill="#476520"/>
<path d="M10.4982 8.16176H9.65731V9.60294C9.65731 10.1471 9.78892 10.25 10.5786 10.2721V10.5H8.36313V10.2721C8.97732 10.2574 9.05043 10.1838 9.05043 9.64706V6.35294C9.05043 5.81618 8.97732 5.74265 8.36313 5.72794V5.5H10.681C11.7777 5.5 12.3334 5.93382 12.3334 6.79412C12.3334 7.64706 11.6315 8.16176 10.4982 8.16176ZM10.5713 5.76471H9.65731V7.89706H10.3885C11.1855 7.89706 11.6607 7.49265 11.6607 6.79412C11.6607 6.08824 11.3317 5.76471 10.5713 5.76471Z" fill="#476520"/>
</svg>
