<svg width="16" height="16" viewBox="0 0 16 16" fill="none" xmlns="http://www.w3.org/2000/svg">
<rect width="16" height="16" rx="8" fill="#FCF6F1"/>
<path d="M5.76491 8.19231H4.93858V9.61466C4.93858 10.1517 5.06792 10.2533 5.84395 10.275V10.5H3.66675V10.275C4.27033 10.2605 4.34218 10.188 4.34218 9.6582V6.40711C4.34218 5.87736 4.27033 5.80479 3.66675 5.79028V5.56531H5.94455C7.02238 5.56531 7.56847 5.99347 7.56847 6.84253C7.56847 7.68432 6.87867 8.19231 5.76491 8.19231ZM5.83677 5.82656H4.93858V7.93106H5.65713C6.44035 7.93106 6.90741 7.53193 6.90741 6.84253C6.90741 6.14586 6.58406 5.82656 5.83677 5.82656Z" fill="#476520"/>
<path d="M10.0125 5.5L11.6364 9.42598C11.9023 10.0718 12.0388 10.246 12.3334 10.275V10.5H10.5514V10.275C10.961 10.2605 11.1478 10.1662 11.1478 9.93396C11.1478 9.81785 11.1047 9.66546 11.0257 9.47678L10.7742 8.85994H8.76941L8.53229 9.47678C8.46043 9.67271 8.41732 9.81785 8.41732 9.93396C8.41732 10.1734 8.59695 10.2605 9.01371 10.275V10.5H7.51913V10.275C7.81374 10.246 7.9287 10.0864 8.17301 9.46952L9.567 5.94267L9.38736 5.5H10.0125ZM9.73945 6.35631L8.89156 8.55515H10.6448L9.73945 6.35631Z" fill="#476520"/>
</svg>
