<svg width="32" height="32" viewBox="0 0 32 32" fill="none" xmlns="http://www.w3.org/2000/svg">
<rect width="32" height="32" rx="16" fill="#FCF6F1"/>
<path d="M11.5296 16.3846H9.87692V19.2293C9.87692 20.3033 10.1356 20.5065 11.6877 20.5501V21H7.33325V20.5501C8.54042 20.521 8.68413 20.3759 8.68413 19.3164V12.8142C8.68413 11.7547 8.54042 11.6096 7.33325 11.5806V11.1306H11.8889C14.0445 11.1306 15.1367 11.9869 15.1367 13.6851C15.1367 15.3686 13.7571 16.3846 11.5296 16.3846ZM11.6733 11.6531H9.87692V15.8621H11.314C12.8805 15.8621 13.8146 15.0639 13.8146 13.6851C13.8146 12.2917 13.1679 11.6531 11.6733 11.6531Z" fill="#476520"/>
<path d="M20.0248 11L23.2726 18.852C23.8043 20.1437 24.0774 20.492 24.6666 20.5501V21H21.1026V20.5501C21.9217 20.521 22.2954 20.3324 22.2954 19.8679C22.2954 19.6357 22.2091 19.3309 22.0511 18.9536L21.5481 17.7199H17.5386L17.0643 18.9536C16.9206 19.3454 16.8344 19.6357 16.8344 19.8679C16.8344 20.3469 17.1937 20.521 18.0272 20.5501V21H15.038V20.5501C15.6272 20.492 15.8572 20.1727 16.3458 18.939L19.1337 11.8853L18.7745 11H20.0248ZM19.4787 12.7126L17.7829 17.1103H21.2894L19.4787 12.7126Z" fill="#476520"/>
</svg>
