<svg width="32" height="32" viewBox="0 0 32 32" fill="none" xmlns="http://www.w3.org/2000/svg">
<rect width="32" height="32" rx="16" fill="#FCF6F1"/>
<path d="M11.6033 16.3235H9.92162V19.2059C9.92162 20.2941 10.1848 20.5 11.7642 20.5441V21H7.33325V20.5441C8.56163 20.5147 8.70786 20.3676 8.70786 19.2941V12.7059C8.70786 11.6324 8.56163 11.4853 7.33325 11.4559V11H11.9689C14.1624 11 15.2738 11.8676 15.2738 13.5882C15.2738 15.2941 13.87 16.3235 11.6033 16.3235ZM11.7496 11.5294H9.92162V15.7941H11.384C12.9779 15.7941 13.9285 14.9853 13.9285 13.5882C13.9285 12.1765 13.2704 11.5294 11.7496 11.5294Z" fill="#476520"/>
<path d="M20.9961 16.3235H19.3144V19.2059C19.3144 20.2941 19.5776 20.5 21.1569 20.5441V21H16.726V20.5441C17.9544 20.5147 18.1006 20.3676 18.1006 19.2941V12.7059C18.1006 11.6324 17.9544 11.4853 16.726 11.4559V11H21.3617C23.5552 11 24.6666 11.8676 24.6666 13.5882C24.6666 15.2941 23.2627 16.3235 20.9961 16.3235ZM21.1423 11.5294H19.3144V15.7941H20.7767C22.3707 15.7941 23.3212 14.9853 23.3212 13.5882C23.3212 12.1765 22.6632 11.5294 21.1423 11.5294Z" fill="#476520"/>
</svg>
