<svg width="40" height="40" viewBox="0 0 40 40" fill="none" xmlns="http://www.w3.org/2000/svg">
<rect width="40" height="40" rx="20" fill="#FCF6F1"/>
<path d="M15.0043 20.6544H12.9022V24.2574C12.9022 25.6176 13.2312 25.875 15.2054 25.9301V26.5H9.66675V25.9301C11.2022 25.8934 11.385 25.7096 11.385 24.3676V16.1324C11.385 14.7904 11.2022 14.6066 9.66675 14.5699V14H15.4613C18.2032 14 19.5925 15.0846 19.5925 17.2353C19.5925 19.3676 17.8376 20.6544 15.0043 20.6544ZM15.1871 14.6618H12.9022V19.9926H14.7301C16.7226 19.9926 17.9108 18.9816 17.9108 17.2353C17.9108 15.4706 17.0882 14.6618 15.1871 14.6618Z" fill="#476520"/>
<path d="M26.7453 20.6544H24.6432V24.2574C24.6432 25.6176 24.9722 25.875 26.9464 25.9301V26.5H21.4077V25.9301C22.9432 25.8934 23.126 25.7096 23.126 24.3676V16.1324C23.126 14.7904 22.9432 14.6066 21.4077 14.5699V14H27.2023C29.9442 14 31.3334 15.0846 31.3334 17.2353C31.3334 19.3676 29.5786 20.6544 26.7453 20.6544ZM26.9281 14.6618H24.6432V19.9926H26.4711C28.4635 19.9926 29.6517 18.9816 29.6517 17.2353C29.6517 15.4706 28.8291 14.6618 26.9281 14.6618Z" fill="#476520"/>
</svg>
