<svg width="259" height="259" viewBox="0 0 259 259" fill="none" xmlns="http://www.w3.org/2000/svg">
<rect width="259" height="259" rx="129.5" fill="#FCF6F1"/>
<path d="M93.9151 131.219H80.3038V154.548C80.3038 163.356 82.4343 165.023 95.2171 165.38V169.069H59.3542V165.38C69.2964 165.142 70.48 163.951 70.48 155.262V101.939C70.48 93.2501 69.2964 92.0598 59.3542 91.8218V88.132H96.8741C114.628 88.132 123.623 95.1545 123.623 109.08C123.623 122.887 112.261 131.219 93.9151 131.219ZM95.0987 92.4169H80.3038V126.934H92.1397C105.041 126.934 112.734 120.388 112.734 109.08C112.734 97.654 107.408 92.4169 95.0987 92.4169Z" fill="#476520"/>
<path d="M169.938 131.219H156.326V154.548C156.326 163.356 158.457 165.023 171.24 165.38V169.069H135.377V165.38C145.319 165.142 146.503 163.951 146.503 155.262V101.939C146.503 93.2501 145.319 92.0598 135.377 91.8218V88.132H172.897C190.651 88.132 199.646 95.1545 199.646 109.08C199.646 122.887 188.283 131.219 169.938 131.219ZM171.121 92.4169H156.326V126.934H168.162C181.064 126.934 188.757 120.388 188.757 109.08C188.757 97.654 183.431 92.4169 171.121 92.4169Z" fill="#476520"/>
</svg>
