<svg width="144" height="144" viewBox="0 0 144 144" fill="none" xmlns="http://www.w3.org/2000/svg">
<rect width="144" height="144" rx="72" fill="#FCF6F1"/>
<path d="M52.2153 72.9559H44.6476V85.9265C44.6476 90.8235 45.8321 91.75 52.9392 91.9485V94H33V91.9485C38.5277 91.8162 39.1858 91.1544 39.1858 86.3235V56.6765C39.1858 51.8456 38.5277 51.1838 33 51.0515V49H53.8605C63.7313 49 68.7326 52.9044 68.7326 60.6471C68.7326 68.3235 62.4152 72.9559 52.2153 72.9559ZM52.8734 51.3823H44.6476V70.5735H51.2282C58.4011 70.5735 62.6784 66.9338 62.6784 60.6471C62.6784 54.2941 59.7172 51.3823 52.8734 51.3823Z" fill="#476520"/>
<path d="M94.4827 72.9559H86.9151V85.9265C86.9151 90.8235 88.0996 91.75 95.2066 91.9485V94H75.2674V91.9485C80.7951 91.8162 81.4532 91.1544 81.4532 86.3235V56.6765C81.4532 51.8456 80.7951 51.1838 75.2674 51.0515V49H96.1279C105.999 49 111 52.9044 111 60.6471C111 68.3235 104.683 72.9559 94.4827 72.9559ZM95.1408 51.3823H86.9151V70.5735H93.4956C100.668 70.5735 104.946 66.9338 104.946 60.6471C104.946 54.2941 101.985 51.3823 95.1408 51.3823Z" fill="#476520"/>
</svg>
