<svg width="126" height="126" viewBox="0 0 126 126" fill="none" xmlns="http://www.w3.org/2000/svg">
<rect width="126" height="126" rx="63" fill="#FCF6F1"/>
<path d="M46.0634 63.9614H39.4417V75.3107C39.4417 79.5956 40.4781 80.4062 46.6968 80.58V82.375H29.25V80.58C34.0867 80.4641 34.6625 79.8851 34.6625 75.6581V49.7169C34.6625 45.4899 34.0867 44.9108 29.25 44.795V43H47.5029C56.1399 43 60.516 46.4164 60.516 53.1912C60.516 59.9081 54.9883 63.9614 46.0634 63.9614ZM46.6392 45.0846H39.4417V61.8768H45.1997C51.4759 61.8768 55.2186 58.6921 55.2186 53.1912C55.2186 47.6324 52.6275 45.0846 46.6392 45.0846Z" fill="#476520"/>
<path d="M83.0474 63.9614H76.4257V75.3107C76.4257 79.5956 77.4621 80.4062 83.6808 80.58V82.375H66.234V80.58C71.0707 80.4641 71.6465 79.8851 71.6465 75.6581V49.7169C71.6465 45.4899 71.0707 44.9108 66.234 44.795V43H84.4869C93.1239 43 97.5 46.4164 97.5 53.1912C97.5 59.9081 91.9723 63.9614 83.0474 63.9614ZM83.6232 45.0846H76.4257V61.8768H82.1837C88.4599 61.8768 92.2026 58.6921 92.2026 53.1912C92.2026 47.6324 89.6115 45.0846 83.6232 45.0846Z" fill="#476520"/>
</svg>
