<svg width="128" height="64" viewBox="0 0 128 64" fill="none" xmlns="http://www.w3.org/2000/svg">
<path d="M35.8619 34.0706H25.099V52.5176C25.099 59.4823 26.7836 60.8 36.8914 61.0823V64H8.53345V61.0823C16.3951 60.8941 17.331 59.9529 17.331 53.0823V10.9176C17.331 4.04706 16.3951 3.10588 8.53345 2.91764V0H38.2017C52.2402 0 59.3531 5.55294 59.3531 16.5647C59.3531 27.4823 50.3684 34.0706 35.8619 34.0706ZM36.7978 3.38823H25.099V30.6824H34.458C44.6594 30.6824 50.7428 25.5059 50.7428 16.5647C50.7428 7.52941 46.5312 3.38823 36.7978 3.38823Z" fill="#476520"/>
<path d="M95.9755 34.0706H85.2126V52.5176C85.2126 59.4823 86.8973 60.8 97.005 61.0823V64H68.6471V61.0823C76.5087 60.8941 77.4446 59.9529 77.4446 53.0823V10.9176C77.4446 4.04706 76.5087 3.10588 68.6471 2.91764V0H98.3153C112.354 0 119.467 5.55294 119.467 16.5647C119.467 27.4823 110.482 34.0706 95.9755 34.0706ZM96.9114 3.38823H85.2126V30.6824H94.5717C104.773 30.6824 110.856 25.5059 110.856 16.5647C110.856 7.52941 106.645 3.38823 96.9114 3.38823Z" fill="#476520"/>
</svg>
