<svg width="934" height="481" viewBox="0 0 934 481" fill="none" xmlns="http://www.w3.org/2000/svg">
<path d="M255.524 256.062H174.634V394.703C174.634 447.047 187.295 456.95 263.261 459.072V481H50.1333V459.072C109.218 457.657 116.252 450.584 116.252 398.947V82.0529C116.252 30.4162 109.218 23.3426 50.1333 21.9279V0H273.108C378.617 0 432.075 41.7338 432.075 124.494C432.075 206.547 364.549 256.062 255.524 256.062ZM262.558 25.4647H174.634V230.597H244.973C321.642 230.597 367.363 191.693 367.363 124.494C367.363 56.5882 335.71 25.4647 262.558 25.4647Z" fill="#476520"/>
<path d="M707.315 256.062H626.425V394.703C626.425 447.047 639.086 456.95 715.053 459.072V481H501.925V459.072C561.01 457.657 568.044 450.584 568.044 398.947V82.0529C568.044 30.4162 561.01 23.3426 501.925 21.9279V0H724.9C830.409 0 883.867 41.7338 883.867 124.494C883.867 206.547 816.341 256.062 707.315 256.062ZM714.349 25.4647H626.425V230.597H696.764C773.434 230.597 819.155 191.693 819.155 124.494C819.155 56.5882 787.502 25.4647 714.349 25.4647Z" fill="#476520"/>
</svg>
