<svg width="558" height="558" viewBox="0 0 558 558" fill="none" xmlns="http://www.w3.org/2000/svg">
<rect x="150" y="128" width="259" height="259" rx="129.5" fill="#FCF6F1"/>
<path d="M243.318 259.714H229.942V282.738C229.942 291.431 232.036 293.075 244.598 293.428V297.069H209.354V293.428C219.125 293.193 220.288 292.018 220.288 283.443V230.816C220.288 222.24 219.125 221.066 209.354 220.831V217.189H246.226C263.673 217.189 272.513 224.12 272.513 237.864C272.513 251.491 261.347 259.714 243.318 259.714ZM244.481 221.418H229.942V255.485H241.574C254.252 255.485 261.812 249.024 261.812 237.864C261.812 226.587 256.578 221.418 244.481 221.418Z" fill="#476520"/>
<path d="M312.076 216.132L338.363 279.684C342.667 290.139 344.877 292.958 349.646 293.428V297.069H320.8V293.428C327.43 293.193 330.454 291.666 330.454 287.907C330.454 286.027 329.756 283.56 328.477 280.506L324.406 270.521H291.954L288.115 280.506C286.952 283.678 286.254 286.027 286.254 287.907C286.254 291.783 289.162 293.193 295.908 293.428V297.069H271.715V293.428C276.484 292.958 278.345 290.374 282.299 280.389L304.865 223.298L301.957 216.132H312.076ZM307.656 229.994L293.931 265.587H322.312L307.656 229.994Z" fill="#476520"/>
</svg>
