<svg width="95" height="95" viewBox="0 0 95 95" fill="none" xmlns="http://www.w3.org/2000/svg">
<rect width="95" height="95" rx="47.5" fill="#FCF6F1"/>
<path d="M34.635 48.3042H29.6425V56.8612C29.6425 60.0919 30.4239 60.7031 35.1126 60.8341V62.1875H21.9583V60.8341C25.605 60.7468 26.0391 60.3102 26.0391 57.1232V37.5643C26.0391 34.3773 25.605 33.9407 21.9583 33.8534V32.5H35.7204C42.2324 32.5 45.5318 35.0758 45.5318 40.1838C45.5318 45.2482 41.3641 48.3042 34.635 48.3042ZM35.0692 34.0717H29.6425V46.7325H33.9838C38.7159 46.7325 41.5378 44.3313 41.5378 40.1838C41.5378 35.9926 39.5842 34.0717 35.0692 34.0717Z" fill="#476520"/>
<path d="M62.5198 48.3042H57.5272V56.8612C57.5272 60.0919 58.3087 60.7031 62.9973 60.8341V62.1875H49.843V60.8341C53.4897 60.7468 53.9239 60.3102 53.9239 57.1232V37.5643C53.9239 34.3773 53.4897 33.9407 49.843 33.8534V32.5H63.6051C70.1171 32.5 73.4166 35.0758 73.4166 40.1838C73.4166 45.2482 69.2489 48.3042 62.5198 48.3042ZM62.9539 34.0717H57.5272V46.7325H61.8686C66.6006 46.7325 69.4225 44.3313 69.4225 40.1838C69.4225 35.9926 67.4689 34.0717 62.9539 34.0717Z" fill="#476520"/>
</svg>
