<svg width="144" height="144" viewBox="0 0 144 144" fill="none" xmlns="http://www.w3.org/2000/svg">
<rect width="144" height="144" rx="72" fill="#FCF6F1"/>
<path d="M51.8835 73.2308H44.4465V86.0319C44.4465 90.865 45.6106 91.7794 52.5949 91.9753V94H33V91.9753C38.4322 91.8447 39.0789 91.1916 39.0789 86.4238V57.164C39.0789 52.3962 38.4322 51.7431 33 51.6125V49.5878H53.5002C63.2007 49.5878 68.1155 53.4412 68.1155 61.0827C68.1155 68.6589 61.9073 73.2308 51.8835 73.2308ZM52.5302 51.939H44.4465V70.8795H50.9134C57.9624 70.8795 62.1659 67.2874 62.1659 61.0827C62.1659 54.8128 59.2558 51.939 52.5302 51.939Z" fill="#476520"/>
<path d="M90.1118 49L104.727 84.3338C107.12 90.1466 108.349 91.7141 111 91.9753V94H94.962V91.9753C98.6481 91.8447 100.33 90.9956 100.33 88.9057C100.33 87.8607 99.9415 86.4891 99.2301 84.791L96.9667 79.2395H78.9239L76.7898 84.791C76.1431 86.5544 75.7551 87.8607 75.7551 88.9057C75.7551 91.061 77.3719 91.8447 81.1227 91.9753V94H67.6714V91.9753C70.3229 91.7141 71.3576 90.2772 73.5564 84.7257L86.1022 52.984L84.4855 49H90.1118ZM87.6543 56.7068L80.0233 76.4964H95.8027L87.6543 56.7068Z" fill="#476520"/>
</svg>
