<svg width="558" height="270" viewBox="0 0 558 270" fill="none" xmlns="http://www.w3.org/2000/svg">
<rect x="216" y="50" width="126" height="126" rx="63" fill="#FCF6F1"/>
<path d="M261.773 114.202H255.266V125.403C255.266 129.632 256.284 130.432 262.395 130.603V132.375H245.25V130.603C250.003 130.489 250.569 129.918 250.569 125.746V100.144C250.569 95.9717 250.003 95.4002 245.25 95.2859V93.5143H263.188C271.676 93.5143 275.976 96.8861 275.976 103.572C275.976 110.202 270.544 114.202 261.773 114.202ZM262.339 95.5717H255.266V112.145H260.924C267.092 112.145 270.77 109.001 270.77 103.572C270.77 98.0862 268.224 95.5717 262.339 95.5717Z" fill="#476520"/>
<path d="M295.223 93L308.011 123.917C310.105 129.003 311.18 130.375 313.5 130.603V132.375H299.467V130.603C302.692 130.489 304.163 129.746 304.163 127.917C304.163 127.003 303.824 125.803 303.201 124.317L301.221 119.46H285.433L283.566 124.317C283 125.86 282.661 127.003 282.661 127.917C282.661 129.803 284.075 130.489 287.357 130.603V132.375H275.588V130.603C277.908 130.375 278.813 129.118 280.737 124.26L291.714 96.486L290.3 93H295.223ZM293.073 99.7435L286.395 117.059H300.202L293.073 99.7435Z" fill="#476520"/>
</svg>
