<svg width="270" height="270" viewBox="0 0 270 270" fill="none" xmlns="http://www.w3.org/2000/svg">
<rect x="72" y="50" width="126" height="126" rx="63" fill="#FCF6F1"/>
<path d="M117.773 114.202H111.266V125.403C111.266 129.632 112.284 130.432 118.395 130.603V132.375H101.25V130.603C106.003 130.489 106.569 129.918 106.569 125.746V100.144C106.569 95.9717 106.003 95.4002 101.25 95.2859V93.5143H119.188C127.676 93.5143 131.976 96.8861 131.976 103.572C131.976 110.202 126.544 114.202 117.773 114.202ZM118.339 95.5717H111.266V112.145H116.924C123.092 112.145 126.77 109.001 126.77 103.572C126.77 98.0862 124.224 95.5717 118.339 95.5717Z" fill="#476520"/>
<path d="M151.223 93L164.011 123.917C166.105 129.003 167.18 130.375 169.5 130.603V132.375H155.467V130.603C158.692 130.489 160.163 129.746 160.163 127.917C160.163 127.003 159.824 125.803 159.201 124.317L157.221 119.46H141.433L139.566 124.317C139 125.86 138.661 127.003 138.661 127.917C138.661 129.803 140.075 130.489 143.357 130.603V132.375H131.588V130.603C133.908 130.375 134.813 129.118 136.737 124.26L147.714 96.486L146.3 93H151.223ZM149.073 99.7435L142.395 117.059H156.202L149.073 99.7435Z" fill="#476520"/>
</svg>
