<svg width="934" height="934" viewBox="0 0 934 934" fill="none" xmlns="http://www.w3.org/2000/svg">
<g clip-path="url(#clip0_3057_222481)">
<path d="M251.977 485H172.484V621.83C172.484 673.491 184.926 683.264 259.581 685.358V707H50.1333V685.358C108.198 683.962 115.11 676.981 115.11 626.019V313.264C115.11 262.302 108.198 255.321 50.1333 253.925V232.283H269.258C372.945 232.283 425.479 273.472 425.479 355.151C425.479 436.132 359.12 485 251.977 485ZM258.889 257.415H172.484V459.868H241.608C316.954 459.868 361.885 421.472 361.885 355.151C361.885 288.132 330.779 257.415 258.889 257.415Z" fill="#476520"/>
<path d="M660.594 226L816.816 603.679C842.392 665.811 855.526 682.566 883.867 685.358V707H712.438V685.358C751.839 683.962 769.811 674.887 769.811 652.547C769.811 641.377 765.664 626.717 758.06 608.566L733.866 549.226H541.009L518.198 608.566C511.285 627.415 507.138 641.377 507.138 652.547C507.138 675.585 524.419 683.962 564.511 685.358V707H420.732V685.358C449.073 682.566 460.133 667.208 483.636 607.868L617.737 268.585L600.456 226H660.594ZM634.327 308.377L552.76 519.906H721.424L634.327 308.377Z" fill="#476520"/>
</g>
<defs>
<clipPath id="clip0_3057_222481">
<rect width="933.333" height="933.333" fill="white"/>
</clipPath>
</defs>
</svg>
