<svg width="40" height="40" viewBox="0 0 40 40" fill="none" xmlns="http://www.w3.org/2000/svg">
<g clip-path="url(#clip0_3057_222503)">
<rect width="40" height="40" rx="20" fill="#FCF6F1"/>
<rect width="40" height="40" rx="20" fill="#FCF6F1"/>
<path d="M14.9122 20.7308H12.8463V24.2866C12.8463 25.6292 13.1697 25.8832 15.1098 25.9376V26.5H9.66675V25.9376C11.1757 25.9013 11.3553 25.7199 11.3553 24.3955V16.2678C11.3553 14.9434 11.1757 14.762 9.66675 14.7257V14.1633H15.3613C18.0558 14.1633 19.4211 15.2337 19.4211 17.3563C19.4211 19.4608 17.6965 20.7308 14.9122 20.7308ZM15.0918 14.8164H12.8463V20.0776H14.6427C16.6008 20.0776 17.7684 19.0798 17.7684 17.3563C17.7684 15.6147 16.96 14.8164 15.0918 14.8164Z" fill="#476520"/>
<path d="M25.5311 14L29.5909 23.8149C30.2556 25.4296 30.5969 25.865 31.3334 25.9376V26.5H26.8784V25.9376C27.9023 25.9013 28.3694 25.6655 28.3694 25.0849C28.3694 24.7946 28.2616 24.4136 28.064 23.9419L27.4353 22.3999H22.4234L21.8306 23.9419C21.651 24.4318 21.5432 24.7946 21.5432 25.0849C21.5432 25.6836 21.9923 25.9013 23.0342 25.9376V26.5H19.2977V25.9376C20.0342 25.865 20.3216 25.4659 20.9324 23.9238L24.4174 15.1067L23.9683 14H25.5311ZM24.8485 16.1408L22.7288 21.6379H27.1119L24.8485 16.1408Z" fill="#476520"/>
</g>
<defs>
<clipPath id="clip0_3057_222503">
<rect width="40" height="40" rx="20" fill="white"/>
</clipPath>
</defs>
</svg>
