<svg width="128" height="121" viewBox="0 0 128 121" fill="none" xmlns="http://www.w3.org/2000/svg">
<path d="M35.39 62.4615H24.8129V80.6676C24.8129 87.5414 26.4685 88.8418 36.4017 89.1205V92H8.53345V89.1205C16.2593 88.9347 17.179 88.0058 17.179 81.225V39.611C17.179 32.8302 16.2593 31.9013 8.53345 31.7155V28.836H37.6893C51.4855 28.836 58.4755 34.3164 58.4755 45.1843C58.4755 55.9594 49.646 62.4615 35.39 62.4615ZM36.3097 32.18H24.8129V59.1176H34.0103C44.0356 59.1176 50.0139 54.0087 50.0139 45.1843C50.0139 36.2671 45.875 32.18 36.3097 32.18Z" fill="#476520"/>
<path d="M89.759 28L110.545 78.2525C113.948 86.5196 115.696 88.7489 119.467 89.1205V92H96.6571V89.1205C101.9 88.9347 104.291 87.7271 104.291 84.7547C104.291 83.2685 103.739 81.3179 102.727 78.9028L99.5083 71.0073H73.8475L70.8123 78.9028C69.8926 81.4107 69.3407 83.2685 69.3407 84.7547C69.3407 87.82 71.6401 88.9347 76.9746 89.1205V92H57.8439V89.1205C61.6149 88.7489 63.0865 86.7054 66.2136 78.8099L84.0566 33.6662L81.7573 28H89.759ZM86.264 38.9608L75.411 67.1059H97.8528L86.264 38.9608Z" fill="#476520"/>
</svg>
