<svg width="384" height="194" viewBox="0 0 384 194" fill="none" xmlns="http://www.w3.org/2000/svg">
<path d="M106.706 103.276H74.081V159.194C74.081 180.306 79.1875 184.3 109.827 185.156V194H23.8667V185.156C47.6972 184.585 50.5342 181.732 50.5342 160.906V33.0941C50.5342 12.2676 47.6972 9.4147 23.8667 8.84411V0H113.798C156.353 0 177.914 16.8323 177.914 50.2118C177.914 83.3059 150.679 103.276 106.706 103.276ZM109.543 10.2706H74.081V93.0059H102.451C133.374 93.0059 151.814 77.3147 151.814 50.2118C151.814 22.8235 139.047 10.2706 109.543 10.2706Z" fill="#476520"/>
<path d="M288.926 103.276H256.3V159.194C256.3 180.306 261.407 184.3 292.046 185.156V194H206.086V185.156C229.917 184.585 232.754 181.732 232.754 160.906V33.0941C232.754 12.2676 229.917 9.4147 206.086 8.84411V0H296.018C338.572 0 360.133 16.8323 360.133 50.2118C360.133 83.3059 332.898 103.276 288.926 103.276ZM291.763 10.2706H256.3V93.0059H284.67C315.593 93.0059 334.033 77.3147 334.033 50.2118C334.033 22.8235 321.267 10.2706 291.763 10.2706Z" fill="#476520"/>
</svg>
